# xmcd
#
# Track frame offsets:
#	150
#	27587
#	57667
#	80347
#	101597
#	119035
#	137387
#	163382
#	187247
#	212355
#
# Disc length: 3033 seconds
#
# Revision: 0
# Processed by: cddbd v1.5.2PL0 Copyright (c) Steve Scherf et al.
# Submitted via: audiograbber 1.83.01
#
DISCID=940bd70a
DTITLE=The Son - Chuyen Tinh Hoa Buom
DYEAR=1995
DGENRE=Blues
TTITLE0=Muon Noi Yeu Em
TTITLE1=Tua Ao Mo Phai
TTITLE2=Tinh Yeu La The
TTITLE3=Chuyen Tinh Hoa Buom
TTITLE4=Tang Em Bai Tango
TTITLE5=Duyen Tham
TTITLE6=Sau Nho
TTITLE7=Tro Lai Thanh Pho Suong Mu
TTITLE8=Kiep Hoang
TTITLE9=Dep Nhat Doi Em
EXTD=
EXTT0=
EXTT1=
EXTT2=
EXTT3=
EXTT4=
EXTT5=
EXTT6=
EXTT7=
EXTT8=
EXTT9=
PLAYORDER=
